<?xml version="1.0" ?><svg data-name="LINE COLOR" id="LINE_COLOR" viewBox="0 0 64 64" xmlns="http://www.w3.org/2000/svg"><defs><style>.cls-1{fill:#1976d2;}.cls-2{fill:#ef9a9a;}</style></defs><title/><path class="cls-1" d="M51.5,55h-39A5.5,5.5,0,0,1,12,44V30a20,20,0,0,1,6.5-14.75,19.77,19.77,0,0,1,15.31-5.17C44,11,52,19.91,52,30.41V39a2,2,0,0,1-4,0V30.41A16.32,16.32,0,0,0,33.46,14.06,16,16,0,0,0,16,30V44.5A3.5,3.5,0,0,1,12.5,48a1.5,1.5,0,0,0,0,3h39a1.5,1.5,0,0,0,0-3,2,2,0,0,1,0-4,5.5,5.5,0,0,1,0,11Z"/><path class="cls-1" d="M35,8H29a2,2,0,0,1,0-4h6a2,2,0,0,1,0,4Z"/><path class="cls-1" d="M31.52,60a8.68,8.68,0,0,1-7.19-3.91,2,2,0,0,1,3.34-2.22A4.66,4.66,0,0,0,31.85,56a4.91,4.91,0,0,0,3.48-2.1,2,2,0,1,1,3.34,2.18A8.86,8.86,0,0,1,32.15,60Z"/><path class="cls-2" d="M23,27a2,2,0,0,1-.9-.21,2,2,0,0,1-.89-2.69,11.06,11.06,0,0,1,5-4.94,2,2,0,0,1,1.75,3.59,7,7,0,0,0-3.19,3.15A2,2,0,0,1,23,27Z"/></svg>